<svg width="512" height="512" viewBox="0 0 512 512" fill="none" xmlns="http://www.w3.org/2000/svg">
<g clip-path="url(#clip0_13_13)">
<path d="M256 512C397.385 512 512 397.385 512 256C512 114.615 397.385 0 256 0C114.615 0 0 114.615 0 256C0 397.385 114.615 512 256 512Z" fill="#464646"/>
<path d="M314.637 179.862C326.422 179.862 336.828 182.253 345.851 187.034C355.059 191.632 362.241 198.805 367.397 208.552C372.737 218.115 375.407 230.437 375.407 245.517V330.483H332.316V252.138C332.316 240.184 329.83 231.356 324.857 225.655C319.885 219.954 312.887 217.103 303.864 217.103C297.603 217.103 291.986 218.575 287.014 221.517C282.042 224.276 278.175 228.506 275.412 234.207C272.65 239.908 271.269 247.172 271.269 256V330.483H228.177V252.138C228.177 240.184 225.691 231.356 220.719 225.655C215.931 219.954 209.025 217.103 200.002 217.103C193.741 217.103 188.124 218.575 183.152 221.517C178.18 224.276 174.312 228.506 171.55 234.207C168.788 239.908 167.407 247.172 167.407 256V330.483H124.315V182.069H165.473V222.621L157.739 210.759C162.895 200.644 170.169 193.011 179.561 187.862C189.136 182.529 200.002 179.862 212.156 179.862C225.783 179.862 237.661 183.356 247.789 190.345C258.102 197.149 264.916 207.632 268.23 221.793L253.038 217.655C258.01 206.069 265.928 196.874 276.793 190.069C287.843 183.264 300.457 179.862 314.637 179.862ZM430.33 332.69C422.964 332.69 416.61 330.207 411.27 325.241C406.114 320.092 403.535 313.563 403.535 305.655C403.535 297.747 406.114 291.402 411.27 286.621C416.61 281.655 422.964 279.172 430.33 279.172C437.88 279.172 444.233 281.655 449.389 286.621C454.545 291.402 457.124 297.747 457.124 305.655C457.124 313.563 454.545 320.092 449.389 325.241C444.233 330.207 437.88 332.69 430.33 332.69Z" fill="white"/>
</g>
<defs>
<clipPath id="clip0_13_13">
<rect width="512" height="512" fill="white"/>
</clipPath>
</defs>
</svg>
